<svg xmlns="http://www.w3.org/2000/svg" viewBox="0 0 2737.04 434.81" id="salih-celebi-logo">
  <title>salih çelebi</title>
  <g id="logo">
    <!-- Sağdaki turuncu rozet (n harfi ve dekoratif kısım) -->
    <path d="M2675.51,0H1886.7a321.22,321.22,0,0,1,84.22,195.58,32.9,32.9,0,0,0-1.3,59.6,321.48,321.48,0,0,1-81.85,179.63h795.74A61.53,61.53,0,0,0,2745,373.28V61.52A61.52,61.52,0,0,0,2675.51,0Zm-691.16,246.33a20.6,20.6,0,1,1,20.59-20.59A20.59,20.59,0,0,1,1984.35,246.33Zm193.09,32.74a84.6,84.6,0,0,1-20.25,9.63,78.27,78.27,0,0,1-22.34,2.81c-22.23,0-41.29-7.92-56.95-23.72s-23.56-34.94-23.55-57.29,8-41.5,23.81-57.22,35-23.64,57.2-23.63c8.52,0,15.63.81,21.4,2.43a85.7,85.7,0,0,1,19.65,9l.83.5-8.26,11.57-.71-.44a65,65,0,0,0-15.7-7.51,59.31,59.31,0,0,0-16.87-2.11c-18.5,0-34.08,6.56-47,19.73s-19.26,29-19.26,47.6c0,19,6.26,34.6,18.83,47.16s27.95,18.79,46.36,18.8a74.47,74.47,0,0,0,18.6-2,68,68,0,0,0,16.9-7.48l.76-.45,6.79,11.39.45.75Zm146-9.8c-15.62,15.73-34.87,23.62-57.57,23.62-22.23,0-41.48-8-57.54-24s-24.16-35.1-24.15-57.33c0-22.67,7.9-42.07,23.64-58s35.15-24,58.05-24c22.26,0,41.39,8.07,57.23,24.12s23.79,35.39,23.79,57.84C2346.86,234.28,2339,253.57,2323.41,269.27Zm319.81,20.7H2628.07V202.45c0-15.54-5.37-29-16.18-40.48s-23.83-17.17-39.25-17.18c-17.17,0-30.79,4.84-41,14.47-11.41,10.87-17.18,26.8-17.19,48V290H2499.3V207.7c0-20-5.35-35.47-16-46.7-10.22-10.78-23.68-16.17-40.6-16.18-15.55,0-28.89,5.47-40.22,16.46S2385.55,185.41,2385.54,200.84V290h-15.14V146.43h15.14v9.82a71.12,71.12,0,0,1,26.14-20.18,73.41,73.41,0,0,1,31-6.93c17.06,0,32,5.21,44.72,15.61a74,74,0,0,1,19.45,24c13.31-26,35.2-39.11,65.26-39.08,19.85,0,36.74,7.44,50.46,22.2s20.62,32.36,20.61,52.66Z" fill="#f48233"/>
    <path d="M2265.76,143.36c-19.17,0-35.41,6.5-48.53,19.49S2197.5,192.15,2197.51,211.61c0,18.46,6.74,34.47,20.14,47.82s29.5,20.11,48.11,20.1,34.55-6.6,47.6-19.75,19.64-29.21,19.63-48c0-18.56-6.54-34.67-19.62-48.15S2284.37,143.35,2265.76,143.36Z" fill="#f48233"/>
    
    <!-- Soldaki siyah yazı: salih çelebi -->
    <!-- z -->
    <path d="M310.33,396H0L224.73,65.76H44.16V38.4H275.51L58.16,364.78H310.33Z"/>
    <!-- n (1) -->
    <path d="M1093.24,396H1062.76V210.38q0-69.18-37.92-108.28-36.35-37.5-95.76-37.52-53.94,0-92.82,38.11T797.37,194.36V396H766.88V70.84h30.49v25.8q25.41-34,56.68-49.45t73.86-15.43q71.91,0,117.65,46.9,47.68,48.87,47.68,130.16Z"/>
    <!-- n (2) -->
    <path d="M1471.65,396H1441.17V210.38q0-69.18-37.92-108.28-36.35-37.5-95.76-37.52-53.94,0-92.83,38.11t-38.89,91.67V396h-30.49V70.84h30.49v25.8q25.41-34,56.68-49.45t73.87-15.43q71.91,0,117.65,46.9,47.69,48.87,47.68,130.16Z"/>
    <!-- e (sağdaki) -->
    <path d="M1854.84,235.7q-5.43,53.22-44.49,92.14-45.43,45.13-109.82,45.14v-.5q-63.06-.77-107.49-45.34-45.14-45.43-45.14-109.82a144,144,0,0,1,5.86-40.16h330.67q-14.46-66.24-65.66-106.42T1701.51,30.58q-76.62,0-130.73,54.91t-54.15,131.52q0,77.42,54.15,132.31,53.76,54.59,129.75,54.87v0q77.2-.1,132-54.13,49-48.24,54.17-114.4Zm-229.16-152.74q37.53-21.9,75.83-21.9a157.15,157.15,0,0,1,80.71,22.09q37.73,22.08,58.05,63.5H1564.71Q1584.24,106.78,1625.68,83Z"/>
    <!-- e (soldaki) -->
    <path d="M673.36,235.7q-5.43,53.22-44.49,92.14-45.43,45.13-109.81,45.14v-.5q-63.06-.77-107.49-45.34-45.14-45.43-45.14-109.82a144,144,0,0,1,5.86-40.16H703Q688.51,110.92,637.3,70.74T520,30.58q-76.62,0-130.74,54.91T335.16,217q0,77.42,54.14,132.31,53.76,54.59,129.76,54.87v0q77.19-.1,132-54.13,49-48.24,54.16-114.4ZM444.21,83Q481.74,61.06,520,61.06a157.15,157.15,0,0,1,80.71,22.09q37.73,22.08,58.05,63.5H383.24Q402.77,106.78,444.21,83Z"/>
  </g>
</svg>
